<svg width="963" height="678" viewBox="0 0 963 678" fill="none" xmlns="http://www.w3.org/2000/svg">
<g clip-path="url(#clip0_47:85)">
<path opacity="0.1" d="M549.82 111.175C489.153 109.157 431.374 90.425 376.192 69.9261C321.009 49.4271 266.37 26.7222 207.157 15.854C169.072 8.86854 125.522 7.88215 94.8329 27.4127C65.3059 46.2437 55.7636 78.6601 50.6268 108.772C46.7743 131.423 44.5058 155.267 55.0793 176.474C62.4188 191.198 75.4576 203.573 84.475 217.669C115.839 266.738 93.6705 327.284 59.6911 375.16C43.7559 397.641 25.2524 419.099 12.9448 443.006C0.637235 466.912 -5.05255 494.343 5.70838 518.751C16.3849 542.963 41.8156 561.112 69.3647 573.891C125.307 599.895 191.222 607.275 255.534 611.481C397.845 620.798 540.924 616.763 683.609 612.727C736.42 611.23 789.456 609.714 841.414 601.904C870.257 597.573 900.047 590.686 920.987 574.106C947.571 553.006 954.161 517.281 936.351 490.819C906.467 446.44 823.867 435.419 802.954 387.795C791.453 361.575 803.264 332.377 819.968 308.058C855.812 255.905 915.888 210.146 919.056 150.532C921.231 109.588 892.351 68.581 847.695 49.2029C800.883 28.9012 735.98 31.4569 701.466 65.0659C665.865 99.6343 603.362 112.969 549.82 111.175Z" fill="white"/>
<path opacity="0.1" d="M543.474 676.269C735.527 676.269 891.217 665.196 891.217 651.537C891.217 637.879 735.527 626.806 543.474 626.806C351.421 626.806 195.731 637.879 195.731 651.537C195.731 665.196 351.421 676.269 543.474 676.269Z" fill="white"/>
<path d="M274.591 571.434C274.591 571.434 294.276 568.421 306.087 581.737C306.087 581.737 297.425 588.265 278.791 579.226L274.591 571.434Z" fill="white"/>
<path d="M272.473 571.191C272.473 571.191 259.921 586.005 266.08 602.442C266.08 602.442 276.316 598.514 277.431 578.554L272.473 571.191Z" fill="white"/>
<path d="M261.224 546.828C261.224 546.828 269.098 533.018 300.594 552.351C300.594 552.351 296.394 561.641 282.484 560.888C268.573 560.135 264.88 554.154 261.224 546.828Z" fill="white"/>
<path d="M259.172 545.832C259.172 545.832 242.833 544.039 241.249 579.827C241.249 579.827 251.607 581.88 258.965 570.564C266.324 559.247 263.287 552.898 259.172 545.832Z" fill="white"/>
<path d="M249.657 517.299C249.657 517.299 258.843 492.944 292.176 510.268C292.176 510.268 284.565 532.615 253.069 525.584L249.657 517.299Z" fill="white"/>
<path d="M239.412 480.892C239.412 480.892 256.744 456.277 287.452 479.099C287.452 479.099 276.691 502.198 242.036 489.644L239.412 480.892Z" fill="white"/>
<path d="M235.737 446.234C235.737 446.234 255.956 423.637 286.402 446.234C286.402 446.234 267.242 466.069 235.737 452.009V446.234Z" fill="white"/>
<path d="M232.588 412.589C232.588 412.589 253.069 388.987 282.203 411.334C282.203 411.334 259.106 432.173 232.588 418.113V412.589Z" fill="white"/>
<path d="M234.425 382.71C234.425 382.71 255.985 352.321 283.252 372.918C283.252 372.918 260.156 399.031 234.425 388.485V382.71Z" fill="white"/>
<path d="M239.412 347.801C239.412 347.801 262.255 317.671 288.764 340.771C288.764 340.771 261.73 366.892 239.412 353.325V347.801Z" fill="white"/>
<path d="M247.033 316.604C247.033 316.604 274.066 288.295 297.65 299.567C297.65 299.567 269.473 329.634 245.852 324.11L247.033 316.604Z" fill="white"/>
<path d="M256.481 287.039C256.481 287.039 287.714 252.39 305.824 263.94C305.824 263.94 282.84 290.842 254.269 293.532L256.481 287.039Z" fill="white"/>
<path d="M270.12 252.74C270.12 252.74 297.425 224.422 317.372 231.452C317.372 231.452 294.013 260.828 266.455 261.582L270.12 252.74Z" fill="white"/>
<path d="M282.465 220.655C282.465 220.655 312.648 193.53 325.771 198.3C325.771 198.3 303.987 228.439 281.153 226.681L282.465 220.655Z" fill="white"/>
<path d="M294.538 190.983C294.538 190.983 320.522 158.594 334.695 161.104C334.695 161.104 318.947 189.979 294.538 194.283V190.983Z" fill="white"/>
<path d="M307.643 151.079C307.643 151.079 330.608 126.24 343.009 126.303C343.009 126.303 324.881 159.481 306.696 159.176L307.643 151.079Z" fill="white"/>
<path d="M315.404 124.482L337.582 72.7507C337.582 72.7507 338.697 119.515 312.583 134.077L315.404 124.482Z" fill="white"/>
<path d="M324.412 67.4332C324.412 67.4332 328.087 24.2473 325.724 20.7321C325.724 20.7321 341.585 56.6008 324.253 86.5154L324.412 67.4332Z" fill="white"/>
<path d="M248.795 516.716C248.795 516.716 225.792 503.077 210.897 536.444C210.897 536.444 231.369 549.437 251.495 525.226L248.795 516.716Z" fill="white"/>
<path d="M238.728 479.502C238.728 479.502 210.513 467.19 196.818 502.028C196.818 502.028 218.621 516.375 241.296 488.308L238.728 479.502Z" fill="white"/>
<path d="M234.425 448.341C234.425 448.341 214.216 425.744 183.807 448.341C183.807 448.341 202.967 468.177 234.425 454.116V448.341Z" fill="white"/>
<path d="M231.904 412.589C231.904 412.589 211.432 388.987 182.289 411.334C182.289 411.334 205.395 432.173 231.904 418.113V412.589Z" fill="white"/>
<path d="M234.425 383.571C234.425 383.571 220.065 349.496 188.851 364.175C188.851 364.175 205.723 394.35 233.16 389.212L234.425 383.571Z" fill="white"/>
<path d="M241.221 347.631C241.221 347.631 226.954 313.008 195.29 329.069C195.29 329.069 214.675 360.803 239.815 352.984L241.221 347.631Z" fill="white"/>
<path d="M250.07 316.784C250.07 316.784 244.446 278.826 218.199 275.427C218.199 275.427 223.758 315.456 246.526 323.626L250.07 316.784Z" fill="white"/>
<path d="M257.147 287.102C257.147 287.102 254.953 241.37 233.253 239.782C233.253 239.782 233.985 274.494 254.7 293.586L257.147 287.102Z" fill="white"/>
<path d="M272.37 251.431C272.37 251.431 265.892 213.401 245.186 208.747C245.186 208.747 247.754 245.584 270.326 260.757L272.37 251.431Z" fill="white"/>
<path d="M284.921 220.924C284.921 220.924 284.696 181.316 272.051 175.488C272.051 175.488 264.196 211.356 281.256 225.982L284.921 220.924Z" fill="white"/>
<path d="M295.504 190.579C295.504 190.579 293.732 149.788 280.628 144.04C280.628 144.04 276.138 176.322 293.535 193.252L295.504 190.579Z" fill="white"/>
<path d="M309.47 154.325C309.47 154.325 309.386 121.147 300.041 113.372C300.041 113.372 290.732 149.716 304.587 161.006L309.47 154.325Z" fill="white"/>
<path d="M314.298 122.832L305.205 67.6036C305.205 67.6036 292.842 112.852 314.738 132.786L314.298 122.832Z" fill="white"/>
<path d="M316.079 67.9623C316.079 67.9623 292.72 30.8381 293.198 26.7132C293.198 26.7132 295.682 65.6218 325.068 84.9999L316.079 67.9623Z" fill="white"/>
<path d="M318.816 56.9954C318.816 56.9954 296.769 4.26838 286.796 -0.0179291C286.796 -0.0179291 318.291 15.298 320.653 55.471L318.816 56.9954Z" fill="white"/>
<path d="M306.574 159.49L305.074 159.042C323.681 101.006 328.321 63.9898 318.141 54.7177L319.228 53.6237C330.017 63.4159 325.64 100.02 306.574 159.49Z" fill="#444053"/>
<path d="M255.347 295.352L253.116 294.599C255.085 289.281 257.222 283.883 259.453 278.565C278.875 232.232 295.401 189.19 306.002 156.11L307.943 155.213C297.322 188.293 281.087 233.039 261.646 279.408C259.425 284.699 257.306 290.061 255.347 295.352Z" fill="#444053"/>
<path d="M302.29 614.88C301.99 614.557 271.826 582.078 250.81 526.607C238.486 494.139 231.62 460.008 230.469 425.484C229.035 382.325 238.493 334.126 254.719 290.357L256.481 292.33C220.074 390.574 234.538 474.767 253.725 525.459C274.526 580.419 304.343 612.548 304.634 612.871L302.29 614.88Z" fill="#444053"/>
<path d="M170.863 607.795C170.863 607.795 135.196 605.742 139.405 629.648C139.405 629.648 138.57 633.872 142.573 635.791C142.573 635.791 142.629 633.998 146.229 634.616C147.507 634.822 148.807 634.882 150.1 634.796C151.851 634.683 153.516 634.028 154.843 632.93C154.843 632.93 164.863 628.967 168.763 613.292C168.763 613.292 171.65 609.876 171.528 608.997L165.51 611.454C165.51 611.454 167.572 615.606 165.951 619.058C165.951 619.058 165.754 611.607 164.601 611.777C164.367 611.777 161.47 613.221 161.47 613.221C161.47 613.221 165.013 620.457 162.342 625.712C162.342 625.712 163.354 616.799 160.373 613.741L156.137 616.108C156.137 616.108 160.27 623.578 157.468 629.675C157.468 629.675 158.18 620.323 155.246 616.682L151.403 619.551C151.403 619.551 155.284 626.914 152.921 631.971C152.921 631.971 152.612 621.085 150.569 620.26C150.569 620.26 147.213 623.093 146.697 624.259C146.697 624.259 149.359 629.639 147.71 632.428C147.71 632.428 146.697 625.174 145.835 625.138C145.835 625.138 142.489 629.944 142.142 633.208C142.304 630.165 143.296 627.216 145.019 624.654C143.091 625.003 141.311 625.885 139.901 627.191C139.901 627.191 140.417 623.793 145.844 623.497C145.844 623.497 148.656 619.847 149.35 619.623C149.35 619.623 143.951 619.193 140.679 620.583C140.679 620.583 143.557 617.381 150.344 618.789L154.093 615.83C154.093 615.83 146.988 614.933 143.97 615.929C143.97 615.929 147.438 613.095 155.115 615.158L159.239 612.799C159.239 612.799 153.184 611.553 149.566 612.001C149.566 612.001 153.381 610.037 160.448 612.162L163.401 610.898C163.401 610.898 158.958 610.064 157.664 609.93C156.371 609.795 156.287 609.454 156.287 609.454C159.101 609.007 161.989 609.317 164.629 610.351C164.629 610.351 170.966 608.172 170.863 607.795Z" fill="white"/>
<path d="M67.1902 618.888C67.1902 618.888 31.5704 616.834 35.7417 640.741C35.7417 640.741 34.8981 644.964 38.9006 646.883C38.9006 646.883 38.9662 645.09 42.5657 645.709C43.8437 645.919 45.1437 645.979 46.437 645.888C48.1855 645.777 49.848 645.122 51.1707 644.023C51.1707 644.023 61.2005 640.059 65.0999 624.385C65.0999 624.385 67.9776 620.968 67.912 620.09L61.8941 622.547C61.8941 622.547 63.9563 626.698 62.3347 630.151C62.3347 630.151 62.1378 622.699 60.9849 622.869C60.7505 622.869 57.8541 624.313 57.8541 624.313C57.8541 624.313 61.3973 631.55 58.7258 636.804C58.7258 636.804 59.7382 627.891 56.748 624.833L52.5111 627.2C52.5111 627.2 56.6449 634.67 53.8422 640.768C53.8422 640.768 54.5639 631.415 51.6206 627.774L47.7868 630.644C47.7868 630.644 51.6675 638.006 49.3053 643.063C49.3053 643.063 48.996 632.177 46.9526 631.352C46.9526 631.352 43.5968 634.186 43.0812 635.352C43.0812 635.352 45.7434 640.732 44.0936 643.521C44.0936 643.521 43.0812 636.266 42.2189 636.23C42.2189 636.23 38.8819 641.037 38.5257 644.301C38.6931 641.257 39.6883 638.309 41.4127 635.746C39.4817 636.096 37.6995 636.978 36.2854 638.284C36.2854 638.284 36.8103 634.885 42.2376 634.589C42.2376 634.589 45.0497 630.94 45.7434 630.725C45.7434 630.725 40.3441 630.285 37.0728 631.675C37.0728 631.675 39.9504 628.474 46.737 629.882L50.4864 626.922C50.4864 626.922 43.3812 626.026 40.3629 627.021C40.3629 627.021 43.8311 624.188 51.5081 626.25L55.6325 623.892C55.6325 623.892 49.5678 622.645 45.959 623.093C45.959 623.093 49.774 621.13 56.8417 623.255L59.7944 621.991C59.7944 621.991 55.3513 621.157 54.0484 621.022C52.7455 620.888 52.6798 620.547 52.6798 620.547C55.4939 620.105 58.381 620.415 61.0224 621.444C61.0224 621.444 67.2652 619.265 67.1902 618.888Z" fill="white"/>
<path d="M124.969 644.929C124.969 644.929 89.3494 642.875 93.5113 666.782C93.5113 666.782 92.6771 671.005 96.6796 672.924C96.6796 672.924 96.7452 671.131 100.335 671.749C101.617 671.955 102.92 672.016 104.216 671.929C105.964 671.814 107.625 671.16 108.95 670.064C108.95 670.064 118.97 666.1 122.87 650.425C122.87 650.425 125.757 647.009 125.682 646.13L119.664 648.587C119.664 648.587 121.717 652.739 120.104 656.191C120.104 656.191 119.907 648.74 118.745 648.91C118.511 648.91 115.624 650.354 115.624 650.354C115.624 650.354 119.158 657.581 116.486 662.845C116.486 662.845 117.498 653.932 114.518 650.874L110.281 653.241C110.281 653.241 114.415 660.711 111.612 666.809C111.612 666.809 112.334 657.456 109.39 653.815L105.547 656.685C105.547 656.685 109.437 664.047 107.066 669.104C107.066 669.104 106.756 658.218 104.722 657.393C104.722 657.393 101.357 660.227 100.851 661.392C100.851 661.392 103.513 666.773 101.854 669.561C101.854 669.561 100.842 662.307 99.9791 662.271C99.9791 662.271 96.6327 667.078 96.2859 670.342C96.448 667.299 97.4401 664.349 99.1636 661.787C97.235 662.136 95.4556 663.018 94.0456 664.325C94.0456 664.325 94.5612 660.926 99.9979 660.63C99.9979 660.63 102.754 656.98 103.494 656.756C103.494 656.756 98.095 656.326 94.8236 657.716C94.8236 657.716 97.7107 654.515 104.488 655.967L108.237 653.008C108.237 653.008 101.132 652.111 98.1138 653.107C98.1138 653.107 101.591 650.273 109.259 652.335L113.393 649.977C113.393 649.977 107.366 648.758 103.747 649.206C103.747 649.206 107.553 647.242 114.63 649.367L117.573 648.103C117.573 648.103 113.14 647.269 111.837 647.135C110.534 647 110.468 646.659 110.468 646.659C113.282 646.211 116.171 646.522 118.811 647.556C118.811 647.556 125.072 645.305 124.969 644.929Z" fill="white"/>
<path opacity="0.1" d="M97.167 679.515C111.108 679.515 122.41 677.688 122.41 675.435C122.41 673.182 111.108 671.355 97.167 671.355C83.2256 671.355 71.9238 673.182 71.9238 675.435C71.9238 677.688 83.2256 679.515 97.167 679.515Z" fill="white"/>
<path opacity="0.1" d="M897.844 679.515C911.785 679.515 923.087 677.688 923.087 675.435C923.087 673.182 911.785 671.355 897.844 671.355C883.902 671.355 872.601 673.182 872.601 675.435C872.601 677.688 883.902 679.515 897.844 679.515Z" fill="white"/>
<path opacity="0.1" d="M937.766 644.148C951.708 644.148 963.009 642.322 963.009 640.068C963.009 637.815 951.708 635.988 937.766 635.988C923.825 635.988 912.523 637.815 912.523 640.068C912.523 642.322 923.825 644.148 937.766 644.148Z" fill="white"/>
<path opacity="0.1" d="M146.294 641.602C160.236 641.602 171.537 639.775 171.537 637.522C171.537 635.268 160.236 633.442 146.294 633.442C132.353 633.442 121.051 635.268 121.051 637.522C121.051 639.775 132.353 641.602 146.294 641.602Z" fill="white"/>
<path opacity="0.1" d="M42.5938 653.053C56.5352 653.053 67.837 651.226 67.837 648.973C67.837 646.719 56.5352 644.893 42.5938 644.893C28.6523 644.893 17.3506 646.719 17.3506 648.973C17.3506 651.226 28.6523 653.053 42.5938 653.053Z" fill="white"/>
<path d="M678.923 71.5043H292.964C287.89 71.5043 283.777 75.4387 283.777 80.2921V637.853C283.777 642.707 287.89 646.641 292.964 646.641H678.923C683.996 646.641 688.109 642.707 688.109 637.853V80.2921C688.109 75.4387 683.996 71.5043 678.923 71.5043Z" fill="#3A3768"/>
<path opacity="0.1" d="M628.727 120.94H348.165C333.043 120.94 320.784 132.667 320.784 147.134V207.814C320.784 222.28 333.043 234.008 348.165 234.008H628.727C643.849 234.008 656.107 222.28 656.107 207.814V147.134C656.107 132.667 643.849 120.94 628.727 120.94Z" fill="black"/>
<path d="M643.622 123.146H332.501C327.221 123.146 322.94 127.241 322.94 132.293V223.355C322.94 228.406 327.221 232.501 332.501 232.501H643.622C648.902 232.501 653.183 228.406 653.183 223.355V132.293C653.183 127.241 648.902 123.146 643.622 123.146Z" fill="#E6E8EC"/>
<path opacity="0.1" d="M389.034 281.103H342.578C336.992 281.103 332.464 285.435 332.464 290.779V342.304C332.464 347.648 336.992 351.98 342.578 351.98H389.034C394.62 351.98 399.148 347.648 399.148 342.304V290.779C399.148 285.435 394.62 281.103 389.034 281.103Z" fill="black"/>
<path opacity="0.1" d="M470.538 281.103H424.082C418.496 281.103 413.968 285.435 413.968 290.779V342.304C413.968 347.648 418.496 351.98 424.082 351.98H470.538C476.123 351.98 480.652 347.648 480.652 342.304V290.779C480.652 285.435 476.123 281.103 470.538 281.103Z" fill="black"/>
<path opacity="0.1" d="M552.041 281.103H505.586C500 281.103 495.471 285.435 495.471 290.779V342.304C495.471 347.648 500 351.98 505.586 351.98H552.041C557.627 351.98 562.155 347.648 562.155 342.304V290.779C562.155 285.435 557.627 281.103 552.041 281.103Z" fill="black"/>
<path opacity="0.1" d="M616.626 282.61H604.009C589.078 282.61 576.975 294.188 576.975 308.471V327.625C576.975 341.908 589.078 353.486 604.009 353.486H616.626C631.556 353.486 643.659 341.908 643.659 327.625V308.471C643.659 294.188 631.556 282.61 616.626 282.61Z" fill="black"/>
<path d="M633.545 281.103H587.089C581.503 281.103 576.975 285.435 576.975 290.779V342.304C576.975 347.648 581.503 351.98 587.089 351.98H633.545C639.131 351.98 643.659 347.648 643.659 342.304V290.779C643.659 285.435 639.131 281.103 633.545 281.103Z" fill="white"/>
<path opacity="0.1" d="M389.034 359.073H342.578C336.992 359.073 332.464 363.405 332.464 368.748V420.274C332.464 425.617 336.992 429.949 342.578 429.949H389.034C394.62 429.949 399.148 425.617 399.148 420.274V368.748C399.148 363.405 394.62 359.073 389.034 359.073Z" fill="black"/>
<path opacity="0.1" d="M470.538 359.073H424.082C418.496 359.073 413.968 363.405 413.968 368.748V420.274C413.968 425.617 418.496 429.949 424.082 429.949H470.538C476.123 429.949 480.652 425.617 480.652 420.274V368.748C480.652 363.405 476.123 359.073 470.538 359.073Z" fill="black"/>
<path opacity="0.1" d="M552.041 359.073H505.586C500 359.073 495.471 363.405 495.471 368.748V420.274C495.471 425.617 500 429.949 505.586 429.949H552.041C557.627 429.949 562.155 425.617 562.155 420.274V368.748C562.155 363.405 557.627 359.073 552.041 359.073Z" fill="black"/>
<path opacity="0.1" d="M389.034 445.14H342.578C336.992 445.14 332.464 449.472 332.464 454.815V506.341C332.464 511.684 336.992 516.016 342.578 516.016H389.034C394.62 516.016 399.148 511.684 399.148 506.341V454.815C399.148 449.472 394.62 445.14 389.034 445.14Z" fill="black"/>
<path opacity="0.1" d="M470.538 445.14H424.082C418.496 445.14 413.968 449.472 413.968 454.815V506.341C413.968 511.684 418.496 516.016 424.082 516.016H470.538C476.123 516.016 480.652 511.684 480.652 506.341V454.815C480.652 449.472 476.123 445.14 470.538 445.14Z" fill="black"/>
<path opacity="0.1" d="M552.041 445.14H505.586C500 445.14 495.471 449.472 495.471 454.815V506.341C495.471 511.684 500 516.016 505.586 516.016H552.041C557.627 516.016 562.155 511.684 562.155 506.341V454.815C562.155 449.472 557.627 445.14 552.041 445.14Z" fill="black"/>
<path opacity="0.1" d="M552.041 531.207H505.586C500 531.207 495.471 535.539 495.471 540.882V592.408C495.471 597.751 500 602.083 505.586 602.083H552.041C557.627 602.083 562.155 597.751 562.155 592.408V540.882C562.155 535.539 557.627 531.207 552.041 531.207Z" fill="black"/>
<path opacity="0.1" d="M616.626 360.579H604.009C589.078 360.579 576.975 372.158 576.975 386.441V405.595C576.975 419.877 589.078 431.456 604.009 431.456H616.626C631.556 431.456 643.659 419.877 643.659 405.595V386.441C643.659 372.158 631.556 360.579 616.626 360.579Z" fill="black"/>
<path d="M633.067 359.073H587.567C581.717 359.073 576.975 363.609 576.975 369.206V419.816C576.975 425.413 581.717 429.949 587.567 429.949H633.067C638.917 429.949 643.659 425.413 643.659 419.816V369.206C643.659 363.609 638.917 359.073 633.067 359.073Z" fill="white"/>
<path opacity="0.2" d="M633.067 359.073H587.567C581.717 359.073 576.975 363.609 576.975 369.206V419.816C576.975 425.413 581.717 429.949 587.567 429.949H633.067C638.917 429.949 643.659 425.413 643.659 419.816V369.206C643.659 363.609 638.917 359.073 633.067 359.073Z" fill="black"/>
<path opacity="0.1" d="M471.241 531.207H341.875C336.678 531.207 332.464 535.238 332.464 540.21V593.08C332.464 598.053 336.678 602.083 341.875 602.083H471.241C476.438 602.083 480.652 598.053 480.652 593.08V540.21C480.652 535.238 476.438 531.207 471.241 531.207Z" fill="black"/>
<path opacity="0.1" d="M632.72 445.14H581.549C575.513 445.14 570.62 449.821 570.62 455.596V591.637C570.62 597.411 575.513 602.092 581.549 602.092H632.72C638.756 602.092 643.65 597.411 643.65 591.637V455.596C643.65 449.821 638.756 445.14 632.72 445.14Z" fill="black"/>
<path d="M638.354 213.401H609.164V216.423H638.354V213.401Z" fill="white"/>
<path d="M595.619 213.401H566.43V216.423H595.619V213.401Z" fill="white"/>
<path d="M552.876 213.401H523.686V216.423H552.876V213.401Z" fill="white"/>
<path d="M510.141 213.401H480.952V216.423H510.141V213.401Z" fill="white"/>
<path d="M824.758 425.529C827.767 415.844 824.758 406.159 824.758 406.159V397.022C824.758 397.022 828.198 379.159 812.844 367.699L802.664 359.109C802.664 359.109 796.956 354.419 795.296 354.123C794.987 354.059 794.674 354.014 794.359 353.988L794.059 353.818C793.184 352.387 792.438 350.887 791.828 349.334C792.487 349.416 793.157 349.352 793.786 349.146C794.415 348.941 794.986 348.601 795.456 348.151C795.824 347.746 796.113 347.281 796.309 346.779C796.899 345.514 797.002 343.981 797.499 342.636C797.935 341.545 798.57 340.537 799.374 339.659C799.271 339.82 799.158 339.973 799.065 340.143C800.508 338.421 802.392 336.951 803.751 335.139C804.021 334.78 804.268 334.406 804.492 334.018C804.436 334.099 804.361 334.171 804.295 334.252C806.17 331.373 806.742 327.885 807.285 324.522C807.547 323.378 807.566 322.195 807.342 321.043C807.078 320.279 806.739 319.54 806.329 318.837C804.117 314.47 804.154 308.973 800.621 305.485C797.959 302.875 793.928 302.077 790.132 301.629C786.335 301.181 782.342 300.921 779.08 299.02C778.169 298.359 777.162 297.83 776.09 297.45C775.551 297.27 774.963 297.276 774.427 297.466C773.892 297.655 773.442 298.018 773.156 298.491C773.088 298.77 772.954 299.031 772.762 299.253C772.592 299.345 772.402 299.399 772.207 299.409C772.012 299.42 771.817 299.388 771.637 299.315L766.585 298.024L766.641 298.266H766.51L766.697 299.029C766.796 299.012 766.898 299.029 766.985 299.076C767.073 299.124 767.14 299.199 767.176 299.289L766.36 300.49C764.797 300.463 763.252 300.159 761.804 299.593C761.795 299.671 761.795 299.749 761.804 299.827H761.729C761.636 301.19 763.257 302.077 763.754 303.36C763.953 303.921 763.953 304.529 763.754 305.09C763.551 305.611 763.231 306.082 762.817 306.471C761.026 308.166 758.73 307.834 756.668 308.901C756.489 308.974 756.33 309.083 756.201 309.221C756.071 309.359 755.975 309.522 755.918 309.7C755.836 309.832 755.813 309.99 755.852 310.139C755.934 310.345 756.081 310.521 756.274 310.641C756.874 311.105 757.532 311.497 758.233 311.807C758.027 311.986 757.83 312.165 757.643 312.354C755.025 314.898 753.108 318.023 752.061 321.45C751.015 324.877 750.872 328.498 751.645 331.99C752.418 335.482 754.084 338.737 756.493 341.463C758.902 344.189 761.98 346.302 765.451 347.613C765.526 347.989 765.582 348.375 765.638 348.778C765.638 348.823 765.638 348.85 765.638 348.895L765.694 349.415L758.889 352.186C757.863 352.178 756.86 351.892 755.997 351.36C755.134 350.828 754.446 350.073 754.015 349.182C752.431 346.052 746.835 349.182 746.835 349.182C746.835 349.182 729.765 347.962 723.401 350.975C723.401 350.975 713.212 346.886 711.777 346.608C710.343 346.33 708.197 345.245 707.194 345.523C706.191 345.801 704.897 343.73 704.175 343.882C703.454 344.035 703.172 342.519 700.876 341.972C698.579 341.425 697.717 342.116 695.139 339.659C692.561 337.202 671.602 327.517 671.602 327.517L662.191 320.11L652.152 312.47L651.974 312.784C651.908 312.56 651.842 312.327 651.777 312.076C650.778 308.27 649.526 304.529 648.027 300.876C647.381 299.396 647.09 297.531 646.218 298.517C645.684 299.109 644.775 297.809 643.406 296.93C643.116 296.738 642.785 296.611 642.437 296.557C642.089 296.503 641.732 296.524 641.394 296.619C641.055 296.713 640.743 296.879 640.48 297.103C640.217 297.328 640.009 297.606 639.872 297.917C632.055 309.646 629.252 310.471 633.779 314.784C637.819 318.613 640.5 321.958 643.79 323.016L644.184 323.132C644.113 323.15 644.039 323.15 643.969 323.132L663.053 344.958C663.053 344.958 676.823 356.419 686.3 360.095C695.777 363.772 695.045 364.875 695.045 364.875C695.045 364.875 723.747 378.783 728.191 378.514C732.634 378.245 731.781 407.02 729.915 411.692C728.05 416.364 725.041 449.883 725.041 449.883C725.041 449.883 722.163 456.976 725.182 461.881C725.182 461.881 725.847 471.279 725.247 473.539C722.632 477.395 718.901 483.941 718.292 490.675C718.292 491.034 718.217 491.366 718.18 491.715C717.988 491.928 717.76 492.107 717.505 492.244L718.142 492.065C717.871 494.872 717.241 497.636 716.267 500.297C714.75 504.033 713.947 508 713.896 512.008V533.673L712.021 547.124C712.021 547.124 709.725 557.301 712.021 559.678C712.989 560.862 713.44 562.36 713.277 563.856C713.181 565.593 713.696 567.31 714.739 568.734C715.138 569.151 715.43 569.651 715.593 570.194C715.756 570.737 715.784 571.309 715.677 571.864C714.918 574.222 716.802 599.322 716.802 599.322C716.802 599.322 716.249 606.235 715.489 606.603C714.73 606.97 716.802 614.602 716.802 614.602C716.802 614.602 709.05 620.789 711.027 624.062L713.005 626.967L712.48 627.461L712.162 627.774C711.564 627.445 710.867 627.318 710.184 627.416C707.748 629.8 705.142 632.02 702.385 634.06C698.889 636.473 689.374 639.97 689.374 639.97L681.876 640.553H681.735C681.735 640.553 678.145 640.23 680.16 645.547C682.175 650.865 700.192 649.233 700.192 649.233L710.709 647.646C710.709 647.646 729.456 647.735 734.827 646.596C737.067 646.121 737.639 644.973 737.452 643.817L737.395 643.763C737.138 642.66 736.611 641.63 735.858 640.759C735.82 640.701 735.776 640.647 735.727 640.597L736.064 636.921C744.023 632.536 733.815 623.909 733.815 623.909C733.815 623.909 737.311 616.637 739.102 614.279C740.892 611.92 740.892 577.173 740.892 577.173C740.892 577.173 741.829 564.618 739.364 561.713C739.322 560.767 739.549 559.828 740.021 558.995C740.493 558.163 741.192 557.469 742.045 556.987C743.816 555.831 749.169 539.896 753.368 526.669L756.012 542.254C756.012 542.254 755.44 549.715 757.155 551.894C757.478 552.305 757.707 552.775 757.83 553.275C757.953 553.775 757.965 554.294 757.868 554.799C757.461 556.891 757.593 559.045 758.252 561.076C758.453 561.948 758.943 562.734 759.648 563.318C761.176 564.045 761.27 566.636 761.842 567.183C762.414 567.73 765.957 566.412 766.144 568.412C766.251 570.168 766.251 571.928 766.144 573.684L767.297 606.056C767.297 606.056 765.423 608.746 765.001 615.92C764.841 618.978 764.242 620.717 763.623 621.713C763.28 622.247 763.122 622.871 763.173 623.496C763.223 624.121 763.479 624.715 763.904 625.192L764.232 625.559L762.817 626.6C762.248 627.022 761.849 627.62 761.689 628.292C761.528 628.964 761.615 629.668 761.936 630.285C761.479 630.665 761.152 631.167 760.997 631.727C760.841 632.286 760.865 632.877 761.064 633.424C761.122 633.603 761.204 633.775 761.308 633.935C760.232 634.096 759.235 634.569 758.449 635.289C757.035 637.147 755.331 638.786 753.396 640.149C750.589 642.207 747.901 644.41 745.344 646.749C744.139 648.318 742.522 649.556 740.658 650.336C740.2 650.513 739.726 650.648 739.242 650.739C735.493 651.475 736.664 655.223 739.72 655.842C742.776 656.46 752.918 659.428 760.811 657.698C760.811 657.698 763.154 658.595 766.594 656.927C770.035 655.259 777.711 653.214 777.711 653.214C777.711 653.214 782.014 653.214 782.595 651.582C782.746 651.062 782.828 650.526 782.839 649.986L782.961 649.869L782.848 649.771C782.859 648.549 782.761 647.328 782.558 646.121C782.445 645.493 782.323 644.938 782.211 644.489C781.845 643.126 781.161 641.36 780.87 640.615C780.919 640.556 780.963 640.493 781.002 640.427C782.642 637.737 779.914 631.352 779.914 631.352C780.81 629.993 781.898 628.758 783.148 627.685C784.676 626.591 788.697 598.219 788.697 598.219C788.697 598.219 788.501 590.946 790.572 587.673C792.644 584.4 787.704 564.583 787.704 564.583C787.704 564.583 785.595 560.036 786.363 558.395C787.132 556.754 785.595 550.755 785.595 550.755V543.582C785.59 542.727 785.441 541.879 785.154 541.071C784.564 539.385 783.692 536.148 784.639 533.825C785.979 530.552 789.035 510.367 789.035 510.367C789.035 510.367 786.645 501.463 790.15 494.37C790.424 493.803 790.737 493.255 791.088 492.729C793.684 488.828 792.906 481.896 791.622 476.31C791.435 475.413 791.219 474.606 791.003 473.826C790.919 473.485 790.825 473.162 790.731 472.839L791.144 472.678C791.144 472.678 791.144 472.149 791.275 471.243C792.69 470.975 794.033 470.431 795.22 469.646C796.407 468.861 797.412 467.851 798.174 466.679C798.174 466.679 806.929 457.263 814.672 453.309C822.414 449.354 822.995 443.624 822.995 443.624C821.852 441.714 825.048 433.94 825.048 433.94L824.758 425.529ZM799.505 438.083L791.219 447.274V447.22C789.063 444.351 793.225 437.939 793.225 437.939L800.114 423.233C800.058 425.116 799.815 426.82 799.177 427.564C797.302 430.021 802.627 434.119 802.627 434.119C799.786 434.128 799.505 438.083 799.505 438.083Z" fill="url(#paint0_linear_47:85)"/>
<path d="M653.614 317.573L649.086 325.975C647.653 325.858 646.24 325.575 644.878 325.132C642.719 324.515 640.721 323.467 639.016 322.058C637.312 320.648 635.939 318.909 634.989 316.954C630.949 308.417 637.632 302.902 640.744 301.27C643.856 299.638 646.752 297.782 649.086 303.136C650.551 306.768 651.776 310.484 652.752 314.264C653.295 316.228 653.614 317.573 653.614 317.573Z" fill="#CC818C"/>
<path d="M797.396 361.279L790.169 371.573C790.169 371.573 756.021 387.158 762.545 368.883C765.413 360.812 765.751 354.921 765.235 350.841C765.235 350.796 765.235 350.769 765.235 350.724C764.56 345.622 762.554 343.407 762.554 343.407C762.554 343.407 795.84 327.105 790.881 338.251C789.87 340.568 789.467 343.086 789.71 345.586C790.119 349.187 791.34 352.66 793.29 355.764C794.463 357.729 795.838 359.576 797.396 361.279Z" fill="#CC818C"/>
<path d="M787.001 565.201C787.001 565.201 791.912 584.929 789.813 588.148C787.713 591.368 787.938 598.631 787.938 598.631C787.938 598.631 783.973 626.824 782.464 627.9C781.225 628.949 780.143 630.156 779.249 631.487C779.249 631.487 781.948 637.871 780.327 640.508C780.077 640.909 779.699 641.223 779.249 641.404C776.718 642.427 767.363 637.889 762.039 635.127C761.61 634.903 761.244 634.583 760.972 634.195C760.7 633.806 760.531 633.36 760.477 632.896C760.424 632.431 760.488 631.961 760.666 631.525C760.843 631.089 761.127 630.701 761.495 630.393C761.175 629.782 761.086 629.083 761.243 628.416C761.4 627.749 761.794 627.155 762.357 626.734L763.763 625.694L763.435 625.326C763.015 624.851 762.761 624.26 762.711 623.639C762.66 623.018 762.815 622.397 763.154 621.865C763.763 620.888 764.354 619.175 764.513 616.117C764.898 609.069 766.782 606.361 766.782 606.361L765.648 574.186C765.755 572.442 765.755 570.694 765.648 568.95C765.46 566.968 761.964 568.277 761.401 567.73C760.839 567.183 760.736 564.618 759.227 563.892C758.531 563.308 758.051 562.525 757.858 561.659C757.191 559.629 757.059 557.473 757.474 555.382C757.571 554.881 757.558 554.365 757.437 553.868C757.317 553.371 757.09 552.904 756.771 552.495C755.074 550.325 755.637 542.927 755.637 542.927L753.031 527.432C748.878 540.577 743.601 556.413 741.848 557.561C741.007 558.043 740.317 558.733 739.852 559.558C739.387 560.384 739.163 561.314 739.205 562.251C741.66 565.148 740.714 577.621 740.714 577.621C740.714 577.621 740.714 612.127 738.942 614.485C737.171 616.843 733.74 624.098 733.74 624.098C733.74 624.098 743.863 632.715 735.896 637.064H735.811C727.684 641.404 710.878 629.299 710.878 629.299L712.63 627.622L713.146 627.129L711.159 624.295C709.209 621.04 716.858 614.897 716.858 614.897C716.858 614.897 714.814 607.302 715.564 606.944C716.314 606.585 716.858 599.716 716.858 599.716C716.858 599.716 714.983 574.778 715.752 572.429C715.854 571.876 715.823 571.308 715.661 570.769C715.498 570.23 715.209 569.733 714.814 569.317C713.782 567.902 713.274 566.198 713.371 564.475C713.534 562.989 713.087 561.5 712.124 560.323C709.856 557.974 712.124 547.859 712.124 547.859L713.999 534.48V513.237C714.024 509.136 714.828 505.073 716.37 501.247C717.516 498.146 718.21 494.908 718.433 491.626C719.051 484.775 722.904 478.121 725.491 474.328C726.86 472.319 727.881 471.118 727.881 471.118L788.322 468.858C788.322 468.858 789.26 471.432 790.272 475.009C790.478 475.79 790.685 476.615 790.881 477.475C792.147 483.035 792.906 489.922 790.347 493.796C790 494.321 789.687 494.866 789.41 495.428C785.951 502.476 788.313 511.327 788.313 511.327C788.313 511.327 785.295 531.377 783.973 534.641C783.036 536.946 783.898 540.165 784.489 541.815C784.764 542.623 784.907 543.467 784.91 544.317V551.464C784.91 551.464 786.429 557.427 785.67 559.059C784.91 560.691 787.001 565.201 787.001 565.201Z" fill="#444053"/>
<path opacity="0.1" d="M789.785 494.37C789.434 494.89 789.121 495.432 788.847 495.993L785.445 495.813C785.773 494.136 783.458 478.417 783.458 478.417L790.31 478.049C791.575 483.6 792.344 490.487 789.785 494.37Z" fill="black"/>
<path d="M790.347 493.823C790 494.348 789.687 494.893 789.41 495.455L786.007 495.266C786.335 493.598 784.02 477.87 784.02 477.87L790.872 477.502C792.147 483.062 792.906 489.949 790.347 493.823Z" fill="#444053"/>
<path opacity="0.05" d="M790.347 493.823C790 494.348 789.687 494.893 789.41 495.455L786.007 495.266C786.335 493.598 784.02 477.87 784.02 477.87L790.872 477.502C792.147 483.062 792.906 489.949 790.347 493.823Z" fill="black"/>
<path opacity="0.1" d="M780.336 640.544C780.086 640.945 779.708 641.259 779.258 641.44C776.727 642.463 767.372 637.925 762.048 635.163C761.384 634.812 760.879 634.236 760.633 633.549C763.67 633.02 765.657 636.239 765.657 636.239C766.163 635.936 766.728 635.732 767.318 635.64C767.908 635.548 768.511 635.57 769.092 635.705C769.673 635.839 770.219 636.084 770.7 636.423C771.181 636.763 771.585 637.191 771.89 637.683C774.487 641.342 780.055 639.799 780.055 639.799L780.336 640.544Z" fill="black"/>
<path d="M781.901 651.618C781.339 653.25 777.083 653.25 777.083 653.25C777.083 653.25 769.481 655.33 766.079 656.953C762.676 658.577 760.37 657.725 760.37 657.725C752.581 659.437 742.56 656.46 739.542 655.868C736.524 655.277 735.343 651.537 739.073 650.811C739.552 650.717 740.02 650.579 740.47 650.398C742.339 649.625 743.958 648.386 745.157 646.812C747.682 644.489 750.339 642.301 753.115 640.257C755.026 638.899 756.708 637.269 758.102 635.423C762.545 631.675 765.704 636.822 765.704 636.822C766.211 636.519 766.776 636.316 767.366 636.224C767.956 636.133 768.56 636.156 769.141 636.291C769.722 636.427 770.268 636.672 770.749 637.013C771.229 637.353 771.633 637.782 771.937 638.275C774.534 641.933 780.102 640.382 780.102 640.382C780.102 640.382 781.105 642.83 781.573 644.588C781.686 645.036 781.808 645.592 781.92 646.22C782.173 648.04 782.333 650.398 781.901 651.618Z" fill="#FF748F"/>
<path d="M768.91 640.194C769.194 640.194 769.425 639.973 769.425 639.701C769.425 639.428 769.194 639.208 768.91 639.208C768.625 639.208 768.394 639.428 768.394 639.701C768.394 639.973 768.625 640.194 768.91 640.194Z" fill="#575988"/>
<path d="M764.476 644.166C764.761 644.166 764.991 643.946 764.991 643.673C764.991 643.401 764.761 643.18 764.476 643.18C764.191 643.18 763.96 643.401 763.96 643.673C763.96 643.946 764.191 644.166 764.476 644.166Z" fill="#575988"/>
<path d="M759.967 647.735C760.252 647.735 760.483 647.514 760.483 647.242C760.483 646.97 760.252 646.749 759.967 646.749C759.682 646.749 759.452 646.97 759.452 647.242C759.452 647.514 759.682 647.735 759.967 647.735Z" fill="#575988"/>
<path d="M762.301 646.139C762.586 646.139 762.817 645.918 762.817 645.646C762.817 645.374 762.586 645.153 762.301 645.153C762.016 645.153 761.786 645.374 761.786 645.646C761.786 645.918 762.016 646.139 762.301 646.139Z" fill="#575988"/>
<path d="M766.791 642.059C767.076 642.059 767.307 641.838 767.307 641.566C767.307 641.293 767.076 641.073 766.791 641.073C766.507 641.073 766.276 641.293 766.276 641.566C766.276 641.838 766.507 642.059 766.791 642.059Z" fill="#575988"/>
<path d="M781.901 651.618C781.339 653.25 777.083 653.25 777.083 653.25C777.083 653.25 769.481 655.33 766.079 656.954C762.676 658.577 760.37 657.725 760.37 657.725C752.581 659.437 742.56 656.46 739.542 655.868C736.524 655.277 735.343 651.537 739.073 650.811C739.552 650.717 740.02 650.579 740.47 650.399C743.765 651.484 747.206 652.109 750.687 652.255C758.383 652.569 764.476 652.255 764.476 652.255L772.265 649.86C773.74 649.005 775.378 648.438 777.083 648.193C778.808 647.856 780.44 647.178 781.873 646.202C782.173 648.04 782.333 650.399 781.901 651.618Z" fill="#DCE6F2"/>
<path opacity="0.5" d="M762.517 656.29C762.083 656.293 761.649 656.254 761.223 656.173L761.336 655.644C762.929 655.878 764.558 655.659 766.022 655.017C766.716 654.757 767.41 654.443 768.085 654.12C768.76 653.797 769.706 653.394 770.55 653.098L771.319 652.847C771.74 652.703 772.172 652.569 772.584 652.398C772.818 652.309 773.053 652.201 773.278 652.093C773.831 651.817 774.416 651.603 775.021 651.457C775.331 651.401 775.644 651.362 775.958 651.34C776.248 651.322 776.535 651.289 776.821 651.241C777.388 651.104 777.938 650.909 778.461 650.659C779.021 650.383 779.612 650.172 780.223 650.031L780.636 649.968C781.081 649.957 781.509 649.806 781.854 649.538L782.276 649.905C781.846 650.267 781.301 650.478 780.73 650.506L780.336 650.569C779.767 650.702 779.217 650.898 778.696 651.152C778.134 651.419 777.543 651.626 776.933 651.77C776.624 651.829 776.311 651.865 775.996 651.878C775.7 651.899 775.406 651.935 775.115 651.986C774.552 652.125 774.008 652.327 773.493 652.587L772.781 652.9C772.35 653.071 771.9 653.214 771.469 653.358L770.719 653.609C769.894 653.896 769.088 654.263 768.3 654.613C767.513 654.963 766.913 655.241 766.201 655.51C765.034 655.986 763.785 656.251 762.517 656.29Z" fill="#575988"/>
<path opacity="0.1" d="M764.335 566.511C764.335 566.511 768.253 561.13 774.965 561.13C781.676 561.13 784.545 560.404 784.545 560.404C784.545 560.404 780.252 562.843 777.28 563.157C774.309 563.471 764.335 566.511 764.335 566.511Z" fill="black"/>
<path opacity="0.1" d="M766.604 567.775C766.604 567.775 770.147 565.426 772.172 565.336C774.196 565.246 775.921 565.067 775.921 565.067C774.971 565.704 773.921 566.192 772.809 566.511C771.15 566.959 766.604 567.775 766.604 567.775Z" fill="black"/>
<path opacity="0.1" d="M767.4 569.398C767.4 569.398 772.734 569.802 772.781 571.191L767.4 569.398Z" fill="black"/>
<path opacity="0.1" d="M717.655 493.177C717.936 493.222 722.707 488.433 723.035 486.541C723.295 485.343 724.04 484.293 725.107 483.618C725.107 483.618 728.181 484.793 725.444 488.397C722.707 492.002 717.655 493.177 717.655 493.177Z" fill="black"/>
<path opacity="0.1" d="M790.835 338.233C789.747 340.69 788.791 340.923 788.96 343.264C787.695 344.546 786.238 345.643 784.639 346.519C781.264 348.438 777.59 352.195 773.39 352.195C770.577 352.197 767.788 351.692 765.169 350.706C764.495 345.604 762.489 343.389 762.489 343.389C762.489 343.389 795.784 327.087 790.835 338.233Z" fill="black"/>
<path d="M795.934 329.562C795.934 333.818 794.614 337.979 792.142 341.518C789.67 345.057 786.157 347.816 782.046 349.445C777.935 351.074 773.412 351.5 769.048 350.67C764.684 349.839 760.676 347.789 757.529 344.78C754.383 341.77 752.241 337.935 751.373 333.76C750.505 329.586 750.95 325.258 752.653 321.326C754.356 317.393 757.239 314.032 760.939 311.668C764.638 309.303 768.988 308.041 773.437 308.041C779.404 308.041 785.126 310.308 789.345 314.344C793.564 318.38 795.934 323.854 795.934 329.562Z" fill="#CC818C"/>
<path opacity="0.1" d="M797.396 361.279L790.169 371.573C790.169 371.573 756.021 387.158 762.545 368.883C765.413 360.812 765.751 354.921 765.235 350.841H765.291C765.695 352.193 765.925 353.587 765.976 354.993C766.079 357.808 766.154 361.368 773.475 362.543C785.66 364.498 792.166 357.217 793.309 355.791C794.477 357.746 795.846 359.584 797.396 361.279Z" fill="black"/>
<path opacity="0.1" d="M653.614 317.573L649.086 325.975C647.653 325.858 646.24 325.575 644.878 325.132L644.484 324.684C646.359 325.365 652.555 314.111 652.555 314.111L652.752 314.264C653.295 316.228 653.614 317.573 653.614 317.573Z" fill="black"/>
<path opacity="0.1" d="M790.272 475.036C775.687 481.098 725.238 475.933 725.238 475.933C725.389 475.419 725.473 474.889 725.491 474.355C726.859 472.346 727.881 471.145 727.881 471.145L788.322 468.885C788.322 468.885 789.307 471.458 790.272 475.036Z" fill="black"/>
<path d="M765.254 351.343L758.524 354.096C757.508 354.088 756.516 353.803 755.664 353.274C754.812 352.745 754.136 351.994 753.715 351.11C752.15 347.998 746.629 351.11 746.629 351.11C746.629 351.11 729.756 349.89 723.532 352.903C723.532 352.903 713.474 348.832 712.059 348.563C710.643 348.294 708.515 347.209 707.522 347.478C706.528 347.747 705.263 345.685 704.55 345.855C703.838 346.026 703.557 344.501 701.288 343.954C699.02 343.407 698.176 344.089 695.664 341.65C693.152 339.21 672.427 329.589 672.427 329.589L663.053 322.271L653.136 314.685C653.136 314.685 646.902 325.93 645.056 325.249L663.897 346.94C663.897 346.94 677.498 358.32 686.853 361.978C696.208 365.637 695.495 366.722 695.495 366.722C695.495 366.722 723.832 380.549 728.219 380.28C732.606 380.011 731.781 408.572 729.906 413.181C728.031 417.79 725.097 451.13 725.097 451.13C725.097 451.13 722.285 458.178 725.238 463.056C725.238 463.056 725.941 473.09 725.238 474.848C725.238 474.848 775.996 480.04 790.403 473.898C790.403 473.898 792.531 451.399 790.403 448.556C788.276 445.714 792.391 439.374 792.391 439.374L801.455 419.996L823.558 398.717C823.558 398.717 826.951 380.962 811.794 369.582L801.736 361.037C801.736 361.037 796.112 356.383 794.462 356.087C792.812 355.791 793.422 356.087 793.422 356.087C793.422 356.087 786.86 365.242 773.4 363.072C766.107 361.897 766.032 358.337 765.901 355.531C765.862 354.115 765.645 352.709 765.254 351.343Z" fill="#67647E"/>
<path opacity="0.1" d="M792.953 424.3C792.953 424.3 761.776 425.52 755.552 434.89C755.552 434.89 763.632 431.223 770.85 432.308C778.068 433.393 792.953 424.3 792.953 424.3Z" fill="black"/>
<path opacity="0.1" d="M758.524 456.959C758.524 456.959 773.259 457.909 776.38 454.923C779.502 451.937 779.511 450.179 779.511 450.179L758.524 456.959Z" fill="black"/>
<path opacity="0.1" d="M795.934 395.56C795.934 395.56 783.457 409.657 798.624 415.754L795.934 395.56Z" fill="black"/>
<path opacity="0.1" d="M722.116 368.327C722.116 368.327 726.653 377.178 728.922 377.76L722.116 368.327Z" fill="black"/>
<path opacity="0.1" d="M706.819 364.525C706.819 364.525 718.151 374.29 720.279 375.232C720.279 375.232 708.515 364.525 706.819 364.525Z" fill="black"/>
<path opacity="0.1" d="M752.009 355.181C752.009 355.181 741.098 370.766 748.185 380.289C748.185 380.253 744.22 368.999 752.009 355.181Z" fill="black"/>
<path d="M779.511 473.225L776.174 476.229L775.705 476.641L771.844 480.139C771.572 480.336 771.3 480.533 771.019 480.713C755.299 491.473 752.15 475.117 752.15 475.117C752.15 475.117 745.213 479.457 744.219 475.933C743.226 472.409 760.37 467.396 762.967 467.665C763.194 467.688 763.424 467.688 763.651 467.665C764.89 467.468 766.083 467.065 767.176 466.473L767.935 466.087C768.808 465.617 769.656 465.105 770.475 464.554L779.511 473.225Z" fill="#CC818C"/>
<path opacity="0.1" d="M796.459 329.562C796.467 333.295 795.46 336.965 793.538 340.213C791.615 343.461 788.842 346.175 785.492 348.088C785.178 347.585 784.902 347.06 784.667 346.519C783.861 344.725 783.364 342.788 782.548 340.986C781.656 339.018 780.384 337.229 778.799 335.713C778.53 335.413 778.185 335.184 777.796 335.05C777.431 335.002 777.06 335.025 776.706 335.119C776.351 335.213 776.02 335.376 775.734 335.597C774.779 336.215 773.715 336.662 772.593 336.915C772.032 337.038 771.447 337.02 770.895 336.863C770.343 336.706 769.843 336.415 769.444 336.018C768.563 335.014 768.685 333.543 768.938 332.261C769.491 329.454 770.409 326.692 770.419 323.841C770.428 320.989 769.285 317.922 766.669 316.506C764.382 315.259 761.542 315.609 759.002 314.909C758.608 314.811 758.223 314.685 757.849 314.533C760.972 311.466 764.98 309.361 769.361 308.485C773.741 307.609 778.295 308.004 782.441 309.617C786.586 311.231 790.134 313.99 792.631 317.543C795.128 321.096 796.461 325.281 796.459 329.562Z" fill="black"/>
<path d="M756.311 311.089C755.908 311.296 755.459 311.672 755.58 312.103C755.658 312.308 755.803 312.484 755.993 312.605C757.042 313.415 758.255 314.01 759.555 314.353C762.095 315.017 764.945 314.703 767.232 315.95C769.819 317.357 770.981 320.433 770.981 323.285C770.981 326.136 770.044 328.898 769.51 331.696C769.256 332.987 769.125 334.458 770.006 335.462C770.407 335.857 770.908 336.146 771.459 336.303C772.01 336.46 772.595 336.479 773.156 336.359C774.278 336.111 775.342 335.667 776.296 335.05C776.584 334.828 776.916 334.664 777.272 334.568C777.628 334.473 778.001 334.447 778.368 334.494C778.753 334.634 779.097 334.862 779.371 335.157C780.957 336.676 782.229 338.468 783.12 340.439C783.945 342.232 784.432 344.16 785.239 345.972C785.941 347.819 787.258 349.394 788.988 350.455C790.788 351.406 793.281 351.352 794.668 349.881C796.056 348.411 795.943 346.393 796.599 344.627C797.724 341.551 800.864 339.623 802.833 336.969C805.036 333.983 805.645 330.234 806.245 326.621C806.512 325.483 806.531 324.304 806.301 323.159C806.044 322.401 805.711 321.668 805.307 320.971C803.114 316.631 803.161 311.17 799.683 307.709C797.059 305.108 793.075 304.319 789.325 303.871C785.576 303.422 781.639 303.171 778.424 301.279C777.522 300.627 776.528 300.102 775.471 299.719C774.936 299.539 774.352 299.544 773.821 299.735C773.29 299.925 772.845 300.287 772.565 300.759C772.499 301.035 772.368 301.293 772.181 301.512C772.013 301.605 771.825 301.659 771.631 301.67C771.437 301.681 771.244 301.649 771.066 301.575L766.079 300.293L766.651 302.696C764.838 302.769 763.031 302.463 761.354 301.799C761.261 303.162 762.864 304.041 763.36 305.315C763.54 305.894 763.547 306.509 763.381 307.092C763.216 307.675 762.884 308.202 762.423 308.614C760.614 310.354 758.355 310.022 756.311 311.089Z" fill="#585268"/>
<path opacity="0.1" d="M736.102 634.912L735.896 637.073H735.811C727.684 641.413 710.877 629.308 710.877 629.308L712.63 627.631C712.918 627.936 713.135 628.296 713.267 628.687C713.4 629.078 713.445 629.491 713.399 629.9L716.83 630.079L720.935 634.32C720.935 634.32 732.043 635.549 735.052 634.867L736.102 634.912Z" fill="black"/>
<path d="M734.677 646.695C729.39 647.825 710.877 647.744 710.877 647.744L700.491 649.313C700.491 649.313 682.682 650.945 680.704 645.655C678.726 640.364 682.26 640.696 682.26 640.696H682.4L689.815 640.122C689.815 640.122 699.188 636.643 702.666 634.249C705.388 632.222 707.959 630.016 710.362 627.649C710.362 627.649 713.455 627.075 713.399 630.5L716.83 630.68L720.935 634.93C720.935 634.93 732.043 636.159 735.052 635.468H736.102L735.624 640.714L735.755 640.866C736.467 641.691 739.401 645.691 734.677 646.695Z" fill="#FF748F"/>
<path d="M715.508 634.042C715.793 634.042 716.023 633.822 716.023 633.549C716.023 633.277 715.793 633.056 715.508 633.056C715.223 633.056 714.992 633.277 714.992 633.549C714.992 633.822 715.223 634.042 715.508 634.042Z" fill="#575988"/>
<path d="M702.188 639.566C702.473 639.566 702.704 639.345 702.704 639.073C702.704 638.801 702.473 638.58 702.188 638.58C701.903 638.58 701.673 638.801 701.673 639.073C701.673 639.345 701.903 639.566 702.188 639.566Z" fill="#575988"/>
<path d="M695.327 641.557C695.611 641.557 695.842 641.336 695.842 641.064C695.842 640.791 695.611 640.57 695.327 640.57C695.042 640.57 694.811 640.791 694.811 641.064C694.811 641.336 695.042 641.557 695.327 641.557Z" fill="#575988"/>
<path d="M705.685 638.508C705.969 638.508 706.2 638.287 706.2 638.015C706.2 637.742 705.969 637.522 705.685 637.522C705.4 637.522 705.169 637.742 705.169 638.015C705.169 638.287 705.4 638.508 705.685 638.508Z" fill="#575988"/>
<path d="M698.748 640.562C699.033 640.562 699.264 640.341 699.264 640.068C699.264 639.796 699.033 639.575 698.748 639.575C698.463 639.575 698.232 639.796 698.232 640.068C698.232 640.341 698.463 640.562 698.748 640.562Z" fill="#575988"/>
<path d="M709.218 636.939C709.503 636.939 709.734 636.718 709.734 636.446C709.734 636.173 709.503 635.952 709.218 635.952C708.934 635.952 708.703 636.173 708.703 636.446C708.703 636.718 708.934 636.939 709.218 636.939Z" fill="#575988"/>
<path d="M712.715 635.486C712.999 635.486 713.23 635.265 713.23 634.993C713.23 634.721 712.999 634.5 712.715 634.5C712.43 634.5 712.199 634.721 712.199 634.993C712.199 635.265 712.43 635.486 712.715 635.486Z" fill="#575988"/>
<path d="M734.677 646.695C729.39 647.825 710.877 647.744 710.877 647.744L700.491 649.313C700.491 649.313 682.682 650.946 680.704 645.655C678.726 640.364 682.26 640.696 682.26 640.696H682.4C683.535 642.104 685.812 643.7 690.284 643.781L703.088 644.274L716.352 643.377C716.352 643.377 728.781 643.028 730.806 642.615C732.506 642.177 734.163 641.595 735.755 640.875C736.467 641.691 739.401 645.691 734.677 646.695Z" fill="#DCE6F2"/>
<path opacity="0.5" d="M701.494 648.121C700.786 648.13 700.079 648.046 699.395 647.87L699.545 647.35C701.292 647.709 703.106 647.632 704.813 647.125C705.441 646.964 706.059 646.794 706.687 646.614C707.822 646.27 708.977 645.992 710.146 645.78C712.036 645.545 713.945 645.491 715.845 645.619H716.249C721.928 645.905 727.622 645.661 733.252 644.893C734.588 644.804 735.861 644.314 736.889 643.494L737.292 643.879C736.181 644.782 734.8 645.325 733.346 645.431C727.679 646.204 721.946 646.447 716.23 646.157H715.817C713.942 646.031 712.058 646.085 710.193 646.318C709.049 646.523 707.918 646.795 706.809 647.134C706.181 647.314 705.553 647.493 704.935 647.646C703.812 647.938 702.657 648.097 701.494 648.121Z" fill="#575988"/>
<path opacity="0.1" d="M779.511 473.225L776.174 476.229L767.888 466.078C768.761 465.608 769.609 465.096 770.428 464.545L779.511 473.225Z" fill="black"/>
<path d="M817.081 390.054L823.642 398.726V407.809C823.642 407.809 826.614 417.431 823.642 427.053L823.961 435.455C823.961 435.455 820.802 443.176 821.936 445.077C821.936 445.077 821.374 450.771 813.725 454.699C806.076 458.626 797.396 467.934 797.396 467.934C797.396 467.934 794.134 473.898 785.351 472.543L776.99 475.933L767.363 464.141L780.392 457.362C780.392 457.362 784.929 451.542 787.619 451.811L798.671 439.473C798.671 439.473 798.952 435.545 801.783 435.545C801.783 435.545 796.543 431.483 798.38 429.044C800.218 426.605 798.671 415.754 798.671 415.754L817.081 390.054Z" fill="#67647E"/>
<path opacity="0.1" d="M804.895 429.582C804.895 429.582 819.771 429.313 821.608 432.971C823.445 436.63 809.385 427.546 804.895 429.582Z" fill="black"/>
<path opacity="0.1" d="M775.771 475.933C775.773 476.171 775.751 476.408 775.705 476.641C775.534 477.733 774.974 478.734 774.12 479.476C773.266 480.218 772.171 480.655 771.019 480.713H770.756C769.429 480.713 768.155 480.208 767.217 479.31C766.278 478.412 765.751 477.194 765.751 475.924C765.752 475.395 765.847 474.871 766.032 474.373C763.67 472.579 763.538 469.279 763.604 467.647C764.843 467.45 766.036 467.047 767.129 466.455C767.745 468.149 768.573 469.766 769.594 471.27C769.975 471.184 770.365 471.139 770.756 471.136C771.415 471.136 772.067 471.26 772.675 471.501C773.284 471.742 773.837 472.095 774.302 472.541C774.768 472.986 775.137 473.515 775.389 474.097C775.641 474.679 775.771 475.303 775.771 475.933Z" fill="black"/>
<path d="M767.579 465.379C767.579 465.379 764.223 466.105 764.223 466.688C764.223 467.271 763.464 472.561 767.147 474.758C770.831 476.955 770.456 471.727 770.456 471.727C770.456 471.727 767.288 467.082 767.579 465.379Z" fill="#575988"/>
<path d="M771.319 480.722C774.083 480.722 776.324 478.578 776.324 475.933C776.324 473.288 774.083 471.145 771.319 471.145C768.554 471.145 766.313 473.288 766.313 475.933C766.313 478.578 768.554 480.722 771.319 480.722Z" fill="#E4AAB4"/>
<path d="M771.319 480.04C773.69 480.04 775.612 478.201 775.612 475.933C775.612 473.665 773.69 471.826 771.319 471.826C768.948 471.826 767.026 473.665 767.026 475.933C767.026 478.201 768.948 480.04 771.319 480.04Z" fill="#DCE6F2"/>
<path opacity="0.1" d="M751.821 477.789C751.821 477.789 762.404 486.183 775.996 480.856V484.927C775.996 484.927 766.932 490.89 758.72 487.277C750.509 483.663 751.821 477.789 751.821 477.789Z" fill="black"/>
<path opacity="0.1" d="M751.821 476.704C751.821 476.704 762.404 485.106 775.996 479.771V483.842C775.996 483.842 766.932 489.805 758.72 486.192C750.509 482.578 751.821 476.704 751.821 476.704Z" fill="black"/>
<path d="M751.821 476.704C751.821 476.704 762.404 485.106 775.996 479.771V483.842C775.996 483.842 766.932 489.805 758.72 486.192C750.509 482.578 751.821 476.704 751.821 476.704Z" fill="#444053"/>
<path opacity="0.05" d="M752.103 476.704C752.103 476.704 762.686 485.106 776.287 479.771V483.842C776.287 483.842 767.222 489.805 759.002 486.192C750.781 482.578 752.103 476.704 752.103 476.704Z" fill="black"/>
<path opacity="0.1" d="M718.573 627.631C718.573 627.631 732.746 630.124 734.818 630.662C736.889 631.2 734.255 632.15 734.255 632.15C734.255 632.15 721.32 629.935 718.573 627.631Z" fill="black"/>
<path opacity="0.1" d="M718.245 620.448C718.479 620.448 727.881 617.919 729.906 613.588L718.245 620.448Z" fill="black"/>
<path opacity="0.1" d="M731.959 568.591C731.959 568.591 735.764 573.379 738.22 573.245C740.676 573.11 734.19 568.412 731.959 568.591Z" fill="black"/>
<path opacity="0.1" d="M734.068 576.572C734.068 576.572 735.671 579.952 738.033 578.867L734.068 576.572Z" fill="black"/>
<path opacity="0.05" d="M743.029 502.144L753.078 527.494C753.078 527.494 754.493 511.183 751.503 506.305C750.653 504.91 749.403 503.777 747.902 503.039C746.4 502.302 744.709 501.991 743.029 502.144Z" fill="black"/>
<g opacity="0.1">
<path opacity="0.1" d="M767.719 301.279L767.635 300.912L766.022 300.499L766.201 301.252C766.706 301.288 767.213 301.297 767.719 301.279Z" fill="black"/>
<path opacity="0.1" d="M763.285 307.395L763.454 307.251C763.916 306.839 764.248 306.312 764.414 305.729C764.579 305.146 764.572 304.531 764.391 303.952C764.197 303.502 763.924 303.086 763.585 302.723C762.791 302.573 762.013 302.354 761.261 302.068C761.167 303.422 762.76 304.301 763.257 305.575C763.488 306.16 763.497 306.803 763.285 307.395Z" fill="black"/>
<path opacity="0.1" d="M790.085 349.065C788.337 348.012 787.003 346.436 786.288 344.582C785.491 342.788 784.995 340.852 784.179 339.058C783.288 337.087 782.016 335.295 780.43 333.776C780.159 333.478 779.814 333.25 779.427 333.113C779.062 333.067 778.692 333.092 778.337 333.186C777.983 333.28 777.652 333.441 777.365 333.66C776.41 334.278 775.346 334.725 774.224 334.978C773.663 335.099 773.079 335.081 772.527 334.924C771.975 334.767 771.475 334.477 771.075 334.081C770.194 333.077 770.316 331.597 770.569 330.315C771.122 327.517 772.04 324.746 772.05 321.904C772.059 319.061 770.916 315.977 768.3 314.569C766.013 313.322 763.173 313.672 760.633 312.973C759.33 312.63 758.114 312.035 757.061 311.224C756.994 311.172 756.932 311.115 756.874 311.054C756.661 311.132 756.454 311.225 756.255 311.332C755.843 311.538 755.402 311.914 755.515 312.345C755.599 312.549 755.746 312.724 755.936 312.847C756.985 313.659 758.198 314.255 759.498 314.596C762.039 315.259 764.879 314.945 767.166 316.192C769.753 317.6 770.915 320.675 770.915 323.527C770.915 326.378 769.978 329.14 769.434 331.938C769.181 333.229 769.06 334.7 769.941 335.704C770.341 336.1 770.841 336.39 771.393 336.547C771.944 336.704 772.529 336.722 773.09 336.601C774.212 336.353 775.277 335.909 776.23 335.292C776.516 335.07 776.847 334.906 777.202 334.811C777.556 334.715 777.927 334.69 778.293 334.736C778.679 334.874 779.024 335.102 779.296 335.399C780.878 336.921 782.15 338.712 783.045 340.681C783.87 342.475 784.357 344.402 785.163 346.214C785.866 348.061 787.183 349.636 788.913 350.697C790.703 351.648 793.206 351.594 794.537 350.124C794.906 349.724 795.192 349.262 795.381 348.761C794.625 349.3 793.721 349.616 792.78 349.67C791.839 349.724 790.902 349.514 790.085 349.065Z" fill="black"/>
<path opacity="0.1" d="M798.183 342.17C799.599 340.457 801.464 338.995 802.795 337.202C803.058 336.843 803.301 336.467 803.526 336.09C801.811 338.179 799.458 339.838 798.183 342.17Z" fill="black"/>
</g>
</g>
<defs>
<linearGradient id="paint0_linear_47:85" x1="728.856" y1="658.245" x2="728.856" y2="296.527" gradientUnits="userSpaceOnUse">
<stop stop-color="#808080" stop-opacity="0.25"/>
<stop offset="0.54" stop-color="#808080" stop-opacity="0.12"/>
<stop offset="1" stop-color="#808080" stop-opacity="0.1"/>
</linearGradient>
<clipPath id="clip0_47:85">
<rect width="963" height="703" fill="white"/>
</clipPath>
</defs>
</svg>
